<?xml version="1.0" standalone="no"?>
  <!DOCTYPE svg PUBLIC "-//W3C//DTD SVG 1.1//EN" "http://www.w3.org/Graphics/SVG/1.1/DTD/svg11.dtd" >
  <svg>
  <metadata>
  Created by font-carrier
  </metadata>
  <defs>
  <font id="Intro" horiz-adv-x="1961" vert-adv-y="1961" >
    <font-face
      
      font-family="Intro "
      
      font-weight="400"
      
      font-stretch="normal"
      
      units-per-em="2048"
      
      ascent="1944"
      
      descent="-548"
      
    />
      <missing-glyph />

      

      
      <glyph glyph-name="uni21" unicode="&#x21;" d="M158 1464L567 1464L545 438L188 438L158 1464M166 197Q166 282 223 333.50Q280 385 367 385Q453 385 510 333.50Q567 282 567 197Q567 114 510 62Q453 10 367 10Q281 10 223.50 62Q166 114 166 197Z"  horiz-adv-x="722" vert-adv-y="2048"  />

      
      <glyph glyph-name="uni26" unicode="&#x26;" d="M121 301Q121 301 105 347Q89 393 97 485Q105 577 153.50 664Q202 751 285 811Q234 867 209.50 937.50Q185 1008 187.50 1079.50Q190 1151 222 1219.50Q254 1288 309.50 1340.50Q365 1393 453.50 1425.50Q542 1458 651 1458Q780 1458 880 1417.50Q980 1377 1040 1288Q1100 1199 1094 1073L770 1073Q770 1155 651 1155Q606 1155 575 1132.50Q544 1110 536.50 1078Q529 1046 536.50 1014.50Q544 983 576 960.50Q608 938 655 938L717 938L717 639L651 639Q592 639 549 613Q506 587 486.50 547.50Q467 508 467 462Q467 416 486.50 376.50Q506 337 549 311Q592 285 651 285Q732 285 785 334.50Q838 384 838 467L838 944L1284 944L1284 627L1157 627L1157 467Q1157 231 1022 103Q887-25 651-25Q510-25 397.50 20Q285 65 219 137Q153 209 121 301Z"  horiz-adv-x="1331" vert-adv-y="2048"  />

      
      <glyph glyph-name="uni2c" unicode="&#x2c;" d="M78 160Q78 245 136 297.50Q194 350 279 350Q367 350 425 297.50Q483 245 483 160Q483 135 469 84L379-182L172-182L223-20Q158-5 118 43Q78 91 78 160Z"  horiz-adv-x="581" vert-adv-y="2048"  />

      
      <glyph glyph-name="uni2e" unicode="&#x2e;" d="M82 174Q82 259 140.50 312Q199 365 287 365Q372 365 429.50 312Q487 259 487 174Q487 91 429.50 39.50Q372-12 287-12Q199-12 140.50 39.50Q82 91 82 174Z"  horiz-adv-x="581" vert-adv-y="2048"  />

      
      <glyph glyph-name="uni30" unicode="&#x30;" d="M158 465L158 967Q158 1119 231.50 1232.50Q305 1346 425 1403Q545 1460 692 1460Q842 1460 963 1403Q1084 1346 1157.50 1232.50Q1231 1119 1231 967L1231 465Q1231 313 1157.50 199Q1084 85 963 28Q842-29 692-29Q545-29 425 28Q305 85 231.50 199Q158 313 158 465M506 473Q506 388 558 342.50Q610 297 692 297Q777 297 831 342.50Q885 388 885 473L885 961Q885 1043 831 1088Q777 1133 692 1133Q611 1133 558.50 1088Q506 1043 506 961L506 473Z"  horiz-adv-x="1392" vert-adv-y="2048"  />

      
      <glyph glyph-name="uni31" unicode="&#x31;" d="M45 0L45 299L258 299L258 1137L63 1137L63 1434L614 1434L614 299L831 299L831 0L45 0Z"  horiz-adv-x="876" vert-adv-y="2048"  />

      
      <glyph glyph-name="uni32" unicode="&#x32;" d="M51 0L51 55L590 844Q619 882 637 929Q655 976 658 1021.50Q661 1067 631 1097.50Q601 1128 537 1128Q472 1128 433.50 1094.50Q395 1061 395 989L84 989Q83 1102 118.50 1191Q154 1280 217 1336.50Q280 1393 363 1423.50Q446 1454 543 1456Q663 1459 760.50 1416.50Q858 1374 916 1299Q974 1224 999 1131Q1024 1038 1004 932Q984 826 922 729L633 328L1059 328L1059 0L51 0Z"  horiz-adv-x="1122" vert-adv-y="2048"  />

      
      <glyph glyph-name="uni33" unicode="&#x33;" d="M84 438L406 438Q407 369 449.50 333Q492 297 567 297Q640 297 681.50 345.50Q723 394 725 469Q724 528 701 569Q678 610 641 628Q604 646 556.50 656Q509 666 459.50 664Q410 662 362 662L362 711L553 1108L139 1108L139 1434L1051 1434L1051 1380L786 897Q868 876 927 833Q986 790 1018 731Q1050 672 1064.50 608Q1079 544 1079 471Q1080 397 1060 325.50Q1040 254 998 189.50Q956 125 897 76.50Q838 28 755-0.50Q672-29 575-29Q430-29 319 33Q213 93 148.50 199Q84 305 84 438Z"  horiz-adv-x="1167" vert-adv-y="2048"  />

      
      <glyph glyph-name="uni34" unicode="&#x34;" d="M43 272L43 432L614 1434L1008 1434L1008 571L1130 571L1130 272L1008 272L1008 0L668 0L668 272L43 272M453 571L682 571L682 786L709 1006L705 1006L453 571Z"  horiz-adv-x="1179" vert-adv-y="2048"  />

      
      <glyph glyph-name="uni35" unicode="&#x35;" d="M109 438L424 438Q425 369 468 332Q511 295 584 295Q660 295 703.50 340Q747 385 748 471Q743 589 618 625Q553 644 464.50 647Q376 650 260.50 642.50Q145 635 133 635L133 1434L1026 1434L1026 1122L436 1122L436 944Q519 952 600.50 945.50Q682 939 755 925Q828 911 890.50 875Q953 839 998.50 787.50Q1044 736 1070 655.50Q1096 575 1096 471Q1097 377 1064 289Q1031 201 970 129.50Q909 58 810.50 14.50Q712-29 592-29Q385-29 251.50 97Q118 223 109 438Z"  horiz-adv-x="1183" vert-adv-y="2048"  />

      
      <glyph glyph-name="uni36" unicode="&#x36;" d="M82 471Q82 636 158 752L571 1446L979 1446L676 930Q903 947 1041.50 820.50Q1180 694 1180 471Q1180 348 1137.50 252.50Q1095 157 1020.50 97.50Q946 38 847.50 7.50Q749-23 633-23Q515-23 416 7.50Q317 38 242 97.50Q167 157 124.50 252.50Q82 348 82 471M449 471Q449 392 500 340.50Q551 289 633 289Q717 289 764 339.50Q811 390 811 471Q811 548 765 599.50Q719 651 633 651Q545 651 497 599.50Q449 548 449 471Z"  horiz-adv-x="1263" vert-adv-y="2048"  />

      
      <glyph glyph-name="uni37" unicode="&#x37;" d="M43 1106L43 1434L1090 1434L1090 1378L510 0L133 0L606 1106L43 1106Z"  horiz-adv-x="1099" vert-adv-y="2048"  />

      
      <glyph glyph-name="uni38" unicode="&#x38;" d="M93 304Q93 304 77 350.50Q61 397 69.50 489.50Q78 582 126.50 669.50Q175 757 258 817Q207 873 182 943.50Q157 1014 159.50 1084.50Q162 1155 194 1222.50Q226 1290 281.50 1342Q337 1394 425 1426Q513 1458 621 1458Q729 1458 817 1426Q905 1394 960 1341.50Q1015 1289 1046.50 1221Q1078 1153 1080.50 1082Q1083 1011 1058.50 940.50Q1034 870 983 815Q1066 754 1113.50 666.50Q1161 579 1169 487Q1177 395 1145.50 302.50Q1114 210 1048.50 137.50Q983 65 872 20Q761-25 621-25Q480-25 368 20.50Q256 66 190.50 138.50Q125 211 93 304M440.50 501Q440.50 501 435.75 482Q431 463 440.50 425Q450 387 470.50 355.50Q491 324 530.50 304.50Q570 285 621 285Q672 285 712 304.50Q752 324 773 355.50Q794 387 803.50 425Q813 463 803.50 501Q794 539 773 570.50Q752 602 712 621.50Q672 641 621 641Q570 641 530.50 621.50Q491 602 470.50 570.50Q450 539 440.50 501M490 1078.50Q490 1078.50 486.50 1066.25Q483 1054 490 1030Q497 1006 512 985.50Q527 965 555.50 952.50Q584 940 621 940Q671 940 705.50 963.50Q740 987 748 1020.50Q756 1054 748 1088Q740 1122 705.50 1145.50Q671 1169 621 1169Q584 1169 555.50 1156.50Q527 1144 512 1123.50Q497 1103 490 1078.50Z"  horiz-adv-x="1239" vert-adv-y="2048"  />

      
      <glyph glyph-name="uni39" unicode="&#x39;" d="M72 963Q72 1087 112.50 1182Q153 1277 226.50 1336Q300 1395 398 1424.50Q496 1454 616 1454Q735 1454 834 1424.50Q933 1395 1008.50 1336Q1084 1277 1125.50 1182Q1167 1087 1167 963Q1167 791 1092 680L674-14L266-14L571 504Q460 496 365.50 528Q271 560 207.50 622.50Q144 685 108 773Q72 861 72 963M436 963Q436 884 485.50 833Q535 782 616 782Q704 782 750.50 830Q797 878 797 963Q797 1040 748 1090.50Q699 1141 616 1141Q536 1141 486 1090Q436 1039 436 963Z"  horiz-adv-x="1247" vert-adv-y="2048"  />

      
      <glyph glyph-name="uni3a" unicode="&#x3a;" d="M104 174Q104 259 162.50 312Q221 365 309 365Q394 365 452 312Q510 259 510 174Q510 91 452 39.50Q394-12 309-12Q221-12 162.50 39.50Q104 91 104 174M104 838Q104 923 162.50 975.50Q221 1028 309 1028Q394 1028 452 975.50Q510 923 510 838Q510 755 452 703Q394 651 309 651Q221 651 162.50 703Q104 755 104 838Z"  horiz-adv-x="634" vert-adv-y="2048"  />

      
      <glyph glyph-name="uni3b" unicode="&#x3b;" d="M90 172Q90 257 148 309.50Q206 362 291 362Q379 362 437.50 309.50Q496 257 496 172Q496 150 481 96L391-170L184-170L236-8Q171 7 130.50 55Q90 103 90 172M90 838Q90 923 148.50 975.50Q207 1028 295 1028Q380 1028 438 975.50Q496 923 496 838Q496 755 438 703Q380 651 295 651Q207 651 148.50 703Q90 755 90 838Z"  horiz-adv-x="612" vert-adv-y="2048"  />

      
      <glyph glyph-name="uni3f" unicode="&#x3f;" d="M98 1020Q96 1133 131 1222.50Q166 1312 230 1367.50Q294 1423 377 1453Q460 1483 557 1485Q666 1488 757.50 1455Q849 1422 910 1363Q971 1304 1004.50 1224.50Q1038 1145 1038 1055Q1038 984 1016 921Q994 858 961 815Q928 772 890 725.50Q852 679 820 640Q788 601 768.50 548Q749 495 752 438L389 438Q382 504 393.50 561Q405 618 430 660.50Q455 703 486.50 740.50Q518 778 551.50 812.50Q585 847 614 881Q643 915 663 958Q683 1001 686 1047Q689 1100 646 1130.50Q603 1161 547 1161Q488 1159 448 1124Q408 1089 408 1020L98 1020M369 197Q369 281 426.50 333Q484 385 569 385Q656 385 714 333Q772 281 772 197Q772 114 713.50 62Q655 10 569 10Q484 10 426.50 62Q369 114 369 197Z"  horiz-adv-x="1126" vert-adv-y="2048"  />

      
      <glyph glyph-name="uni40" unicode="&#x40;" d="M74 635Q74 799 138 949Q202 1099 310 1207.50Q418 1316 567.50 1380Q717 1444 881 1444Q1045 1444 1195 1380Q1345 1316 1453.50 1207.50Q1562 1099 1626 949Q1690 799 1690 635Q1690 484 1639 341.50Q1588 199 1485 109Q1391 113 1300 159.50Q1209 206 1142 277.50Q1075 349 1035 442.50Q995 536 997 629Q998 678 963 715Q928 752 881 752Q833 752 797 716Q761 680 762 631Q762 586 798 550Q834 514 881 514Q926 514 967 555Q976 455 1027.50 362.50Q1079 270 1161 199Q1032 119 881 119Q743 119 623.50 187.50Q504 256 433 375.50Q362 495 362 635Q362 775 431.50 894.50Q501 1014 620.50 1083.50Q740 1153 881 1153Q1022 1153 1142 1083.50Q1262 1014 1331.50 894.50Q1401 775 1401 635L1401 338L1407 311Q1503 461 1503 635Q1503 761 1453.50 876Q1404 991 1320.50 1074.50Q1237 1158 1122 1207.50Q1007 1257 881 1257Q756 1257 641 1207.50Q526 1158 442.50 1074.50Q359 991 309.50 876Q260 761 260 635Q260 466 344 323Q428 180 571 97Q714 14 881 14Q1066 14 1225 119Q1344 53 1432 45Q1315-80 1191-128Q1067-176 881-176Q747-176 623-135Q499-94 400-19.50Q301 55 227.50 155Q154 255 114 378.50Q74 502 74 635Z"  horiz-adv-x="1765" vert-adv-y="2048"  />

      
      <glyph glyph-name="uni41" unicode="&#x41;" d="M2 0L2 53L647 1452L805 1452L1452 53L1452 0L1094 0L1010 180L444 180L360 0L2 0M563 494L891 494L725 870L563 494Z"  horiz-adv-x="1458" vert-adv-y="2048"  />

      
      <glyph glyph-name="uni42" unicode="&#x42;" d="M182 0L182 1434L795 1434Q981 1434 1111 1306.50Q1241 1179 1241 993Q1241 927 1210 857Q1179 787 1128 745Q1300 658 1300 453Q1298 256 1181.50 128Q1065 0 854 0L182 0M537 326L829 326Q871 326 899.50 351Q928 376 934 412Q937 429 937 446Q938 465 934 483Q928 519 898.50 544Q869 569 827 569L537 569L537 326M537 874L768 874Q809 874 837.50 898Q866 922 872 956Q875 972 876 989Q876 1007 872 1024Q865 1058 836.50 1082Q808 1106 766 1106L537 1106L537 874Z"  horiz-adv-x="1404" vert-adv-y="2048"  />

      
      <glyph glyph-name="uni43" unicode="&#x43;" d="M96 717Q97 859 138.50 980Q180 1101 250.50 1186Q321 1271 415 1331.50Q509 1392 614.50 1421Q720 1450 831 1450Q922 1450 1010 1430.50Q1098 1411 1181 1368Q1264 1325 1329.50 1262.50Q1395 1200 1442 1108Q1489 1016 1505 905L1145 905Q1071 1116 831 1116Q670 1116 572.50 1006Q475 896 475 717Q475 611 518 521Q561 431 643.50 375.50Q726 320 831 319Q951 319 1036.50 378.50Q1122 438 1151 551L1511 551Q1496 433 1449.50 337Q1403 241 1337 176.50Q1271 112 1187 68.50Q1103 25 1014 5.50Q925-14 831-14Q827-14 824-14Q716-14 614 14Q508 43 414.50 103Q321 163 250.50 248Q180 333 138.50 454Q97 575 96 717Z"  horiz-adv-x="1609" vert-adv-y="2048"  />

      
      <glyph glyph-name="uni44" unicode="&#x44;" d="M182 0L182 1434L723 1434Q859 1433 974.50 1393Q1090 1353 1171.50 1284Q1253 1215 1311 1123.50Q1369 1032 1396 929Q1423 826 1423 717Q1423 608 1396 505Q1369 402 1311 310.50Q1253 219 1171.50 150Q1090 81 974.50 41Q859 1 723 0L182 0M549 334L723 334Q806 334 872.50 367Q939 400 980.50 454Q1022 508 1044 576.50Q1066 645 1066 717Q1066 789 1044 857.50Q1022 926 980.50 980Q939 1034 872.50 1067Q806 1100 723 1100L549 1100L549 334Z"  horiz-adv-x="1519" vert-adv-y="2048"  />

      
      <glyph glyph-name="uni45" unicode="&#x45;" d="M182 0L182 1434L1077 1434L1077 1106L547 1106L547 903L1034 903L1034 578L547 578L547 326L1096 326L1096 0L182 0Z"  horiz-adv-x="1228" vert-adv-y="2048"  />

      
      <glyph glyph-name="uni46" unicode="&#x46;" d="M182 0L182 1434L1075 1434L1075 1106L555 1106L555 793L1016 793L1016 465L555 465L555 0L182 0Z"  horiz-adv-x="1175" vert-adv-y="2048"  />

      
      <glyph glyph-name="uni47" unicode="&#x47;" d="M94 717Q95 859 136.50 980.50Q178 1102 248.50 1187.50Q319 1273 413 1333.50Q507 1394 612.50 1423Q718 1452 829 1452Q918 1451 1002 1432.50Q1086 1414 1166 1374.50Q1246 1335 1310 1276.50Q1374 1218 1421.50 1133Q1469 1048 1489 944L1128 944Q1084 1035 1012 1075.50Q940 1116 829 1116Q662 1116 567.50 1002.50Q473 889 473 717Q473 538 570 431Q667 324 829 324Q945 324 1017 362.50Q1089 401 1137 500L831 500L831 817L1509 817Q1514 765 1514 709Q1514 659 1510 606Q1502 492 1468 397Q1431 289 1363 207Q1295 125 1208.50 77.50Q1122 30 1027 7Q932-16 829-16Q718-16 612.50 12.50Q507 41 413 101.50Q319 162 248.50 247Q178 332 136.50 453.50Q95 575 94 717Z"  horiz-adv-x="1617" vert-adv-y="2048"  />

      
      <glyph glyph-name="uni48" unicode="&#x48;" d="M184 0L184 1434L559 1434L559 913L1001 913L1001 1434L1376 1434L1376 0L1001 0L1001 575L559 575L559 0L184 0Z"  horiz-adv-x="1560" vert-adv-y="2048"  />

      
      <glyph glyph-name="uni49" unicode="&#x49;" d="M63 0L63 322L246 322L246 1114L78 1114L78 1434L776 1434L776 1114L608 1114L608 322L791 322L791 0L63 0Z"  horiz-adv-x="847" vert-adv-y="2048"  />

      
      <glyph glyph-name="uni4a" unicode="&#x4a;" d="M94 477L94 664L440 664L440 483Q440 401 494 356Q548 311 631 311Q713 311 761 355Q809 399 809 483L809 1108L600 1108L600 1434L1184 1434L1184 477Q1184 363 1139 268.50Q1094 174 1018 112.50Q942 51 842 17.50Q742-16 631-16Q482-16 361 41Q240 98 167 211.50Q94 325 94 477Z"  horiz-adv-x="1355" vert-adv-y="2048"  />

      
      <glyph glyph-name="uni4b" unicode="&#x4b;" d="M184 0L184 1434L557 1434L557 891L584 891Q685 891 754 922Q823 953 858 992Q893 1031 910.50 1111.50Q928 1192 930 1242.50Q932 1293 932 1396Q932 1421 932 1434L1309 1434Q1309 1426 1309 1411Q1309 1348 1308.50 1316Q1308 1284 1306 1226Q1304 1168 1299 1135.50Q1294 1103 1284.50 1052Q1275 1001 1261.50 968Q1248 935 1227 892Q1206 849 1179 817Q1152 785 1114.50 751Q1077 717 1032 688L1421 57L1421 0L1014 0L698 555Q649 547 557 547L557 0L184 0Z"  horiz-adv-x="1449" vert-adv-y="2048"  />

      
      <glyph glyph-name="uni4c" unicode="&#x4c;" d="M180 0L180 1434L549 1434L549 330L1069 330L1069 0L180 0Z"  horiz-adv-x="1138" vert-adv-y="2048"  />

      
      <glyph glyph-name="uni4d" unicode="&#x4d;" d="M180 0L180 1438L315 1438L877 815L1448 1438L1579 1438L1579 0L1204 0L1204 639L899 319L858 319L555 639L555 0L180 0Z"  horiz-adv-x="1761" vert-adv-y="2048"  />

      
      <glyph glyph-name="uni4e" unicode="&#x4e;" d="M182 0L182 1440L315 1440L1040 731L1040 1434L1415 1434L1415-2L1284-2L561 705L561 0L182 0Z"  horiz-adv-x="1597" vert-adv-y="2048"  />

      
      <glyph glyph-name="uni4f" unicode="&#x4f;" d="M94 715Q94 894 157 1039Q220 1184 323.50 1273Q427 1362 559.50 1410.50Q692 1459 829.50 1459Q967 1459 1099.50 1410.50Q1232 1362 1335.50 1273Q1439 1184 1502 1039Q1565 894 1565 715Q1565 535 1502 390Q1439 245 1335.50 155.50Q1232 66 1099.50 17.50Q967-31 829.50-31Q692-31 559.50 17.50Q427 66 323.50 155.50Q220 245 157 390Q94 535 94 715M471 715Q471 621 502 545Q533 469 583.50 422Q634 375 698.50 350Q763 325 830.50 325Q898 325 962.50 350Q1027 375 1077.50 422Q1128 469 1159 545Q1190 621 1190 715Q1190 808 1159 883.50Q1128 959 1077.50 1005.50Q1027 1052 962.50 1077Q898 1102 830.50 1102Q763 1102 698.50 1077Q634 1052 583.50 1005.50Q533 959 502 883.50Q471 808 471 715Z"  horiz-adv-x="1658" vert-adv-y="2048"  />

      
      <glyph glyph-name="uni50" unicode="&#x50;" d="M182 0L182 1434L813 1434Q924 1434 1016.50 1397Q1109 1360 1169 1298.50Q1229 1237 1270 1157Q1312 1076 1321 988Q1325 944 1325 900Q1325 856 1321 812Q1312 724 1270.50 643.50Q1229 563 1169 501.50Q1109 440 1016.50 403.50Q924 367 813 367L549 367L549 0L182 0M549 696L811 696Q852 696 885.50 718.50Q919 741 936 777Q954 812 962 856Q967 879 967 903Q968 924 964 944Q956 988 939 1024Q922 1060 888.50 1083Q855 1106 811 1106Q773 1107 728.50 1107Q684 1107 630.50 1106.50Q577 1106 549 1106L549 696Z"  horiz-adv-x="1421" vert-adv-y="2048"  />

      
      <glyph glyph-name="uni51" unicode="&#x51;" d="M96 715Q96 894 159 1039Q222 1184 325.50 1273Q429 1362 561.50 1410.50Q694 1459 831.50 1459Q969 1459 1101.50 1410.50Q1234 1362 1337.50 1273Q1441 1184 1504 1039Q1567 894 1567 715Q1567 471 1452 291L1599 47L1599 0L1227 0L1192 66Q1111 23 1020 0.50Q929-22 838-24Q831-24 825-24L654-4Q563 16 481 55.50Q399 95 328.50 158.50Q258 222 206.50 302Q155 382 125.50 488Q96 594 96 715M473 715Q473 621 504 545Q535 469 585 422Q635 375 699.50 350Q764 325 831.50 325Q899 325 963.50 350Q1028 375 1078 422Q1128 469 1159 545Q1190 621 1190 715Q1190 838 1137 928.50Q1084 1019 1004 1060Q924 1101 831.50 1101Q739 1101 659 1060Q579 1019 526 928.50Q473 838 473 715Z"  horiz-adv-x="1667" vert-adv-y="2048"  />

      
      <glyph glyph-name="uni52" unicode="&#x52;" d="M180 0L180 1434L809 1434Q911 1434 998 1404Q1085 1374 1145 1323.50Q1205 1273 1248 1205Q1290 1136 1308 1062Q1324 997 1324 928Q1324 918 1324 908Q1322 828 1297.50 755.50Q1273 683 1225.50 618Q1178 553 1112 508L1393 53L1393 0L983 0L737 422L547 422L547 0L180 0M547 748L809 748Q850 748 882.50 767.50Q915 787 932.50 818.50Q950 850 958 888Q963 908 963 928Q964 946 960 964Q952 1002 935 1034Q918 1066 885 1086Q852 1106 809 1106Q771 1107 727 1107Q683 1107 629.50 1106.50Q576 1106 547 1106L547 748Z"  horiz-adv-x="1431" vert-adv-y="2048"  />

      
      <glyph glyph-name="uni53" unicode="&#x53;" d="M82 438L436 438Q436 386 482 350Q528 316 594 306Q633 300 673 300Q700 300 726 302Q792 308 838.50 341Q885 374 885 422Q885 458 865 483Q845 508 806.50 522Q768 536 725.50 543Q683 550 623 553Q501 562 410 588Q319 614 248 664.50Q177 715 140 797Q103 879 102 993Q102 997 102 1001Q102 1123 159 1220Q218 1320 315 1371.50Q412 1423 530 1447Q589 1459 647.50 1459Q706 1459 765 1447Q883 1423 980 1372Q1078 1320 1138 1220Q1197 1123 1196 1001Q1196 997 1196 993L848 993Q848 1047 808 1082Q770 1118 712 1126Q686 1129 659 1129L596 1124Q538 1115 496 1080.50Q454 1046 451 997Q449 965 460 941.50Q471 918 489.50 903Q508 888 540.50 877.50Q573 867 603.50 862Q634 857 678 852Q735 846 773 841Q811 836 863.50 826.50Q916 817 951.50 806Q987 795 1029.50 777Q1072 759 1100.50 737Q1129 715 1158 684Q1187 653 1203.50 615.50Q1220 578 1230.50 528.50Q1241 479 1241 420Q1241 296 1176.50 198.50Q1112 101 1010 50Q906 0 782-24Q721-36 661-36Q598-36 534-24Q410 0 308 52Q206 104 143 206Q82 304 82 430Q82 434 82 438Z"  horiz-adv-x="1327" vert-adv-y="2048"  />

      
      <glyph glyph-name="uni54" unicode="&#x54;" d="M41 1106L41 1434L1106 1434L1106 1106L756 1106L756 0L393 0L393 1106L41 1106Z"  horiz-adv-x="1150" vert-adv-y="2048"  />

      
      <glyph glyph-name="uni55" unicode="&#x55;" d="M168 477L168 1434L518 1434L518 483Q518 401 584 355Q650 309 737 309Q824 309 889 355Q954 401 954 483L954 1434L1305 1434L1305 477Q1305 362 1258 267Q1211 172 1131.50 110Q1052 48 950 14Q848-20 737-20Q626-20 524 14Q422 48 342.50 110Q263 172 215.50 267.50Q168 363 168 477Z"  horiz-adv-x="1478" vert-adv-y="2048"  />

      
      <glyph glyph-name="uni56" unicode="&#x56;" d="M29 1378L29 1434L381 1434L717 623L727 623L1055 1434L1407 1434L1407 1378L799-16L643-16L29 1378Z"  horiz-adv-x="1437" vert-adv-y="2048"  />

      
      <glyph glyph-name="uni57" unicode="&#x57;" d="M31 1378L31 1434L401 1434L586 893L649 649L655 649L895 1411L1051 1411L1294 649L1300 649L1364 893L1546 1434L1911 1434L1911 1378L1413-14L1202-14L973 676L967 676L737-14L535-14L31 1378Z"  horiz-adv-x="1943" vert-adv-y="2048"  />

      
      <glyph glyph-name="uni58" unicode="&#x58;" d="M25 0L25 55L487 760L74 1378L74 1434L449 1434L682 1061L692 1061L932 1434L1300 1434L1300 1378L887 760L1352 55L1352 0L967 0L694 451L682 451L408 0L25 0Z"  horiz-adv-x="1378" vert-adv-y="2048"  />

      
      <glyph glyph-name="uni59" unicode="&#x59;" d="M18 1378L18 1434L414 1434L674 956L688 956L948 1434L1346 1434L1346 1378L862 602L862 0L500 0L500 602L18 1378Z"  horiz-adv-x="1361" vert-adv-y="2048"  />

      
      <glyph glyph-name="uni5a" unicode="&#x5a;" d="M47 0L47 55L633 1106L100 1106L100 1434L1186 1434L1186 1378L598 328L1192 328L1192 0L47 0Z"  horiz-adv-x="1251" vert-adv-y="2048"  />

      
      <glyph glyph-name="uni60" unicode="&#x60;" d="M125 1399L125 1430L436 1534L592 1192L592 1159L336 1159L125 1399Z"  horiz-adv-x="714" vert-adv-y="2048"  />

      
      <glyph glyph-name="uni61" unicode="&#x61;" d="M2 0L2 53L647 1452L805 1452L1452 53L1452 0L1094 0L1010 180L444 180L360 0L2 0M565 496L889 496L725 872L565 496Z"  horiz-adv-x="1458" vert-adv-y="2048"  />

      
      <glyph glyph-name="uni62" unicode="&#x62;" d="M182 0L182 1434L795 1434Q981 1434 1111 1306.50Q1241 1179 1241 993Q1241 927 1210 857Q1179 787 1128 745Q1300 658 1300 453Q1298 256 1181.50 128Q1065 0 854 0L182 0M537 326L829 326Q871 326 899.50 351Q928 376 934 412Q937 429 937 446Q938 465 934 483Q928 519 898.50 544Q869 569 827 569L537 569L537 326M537 870L768 870Q809 870 838 894Q866 920 872 954Q875 971 876 987Q876 1004 872 1022Q865 1056 836.50 1081Q808 1106 766 1106L537 1106L537 870Z"  horiz-adv-x="1404" vert-adv-y="2048"  />

      
      <glyph glyph-name="uni63" unicode="&#x63;" d="M96 717Q97 859 138.50 980Q180 1101 250.50 1186Q321 1271 415 1331.50Q509 1392 614.50 1421Q720 1450 831 1450Q922 1450 1010 1430.50Q1098 1411 1181 1368Q1264 1325 1329.50 1262.50Q1395 1200 1442 1108Q1489 1016 1505 905L1145 905Q1071 1116 831 1116Q670 1116 572.50 1006Q475 896 475 717Q475 611 518 521Q561 431 643.50 375.50Q726 320 831 319Q951 319 1036.50 378.50Q1122 438 1151 551L1511 551Q1496 433 1449.50 337Q1403 241 1337 176.50Q1271 112 1187 68.50Q1103 25 1014 5.50Q925-14 831-14Q827-14 824-14Q716-14 614 14Q508 43 414.50 103Q321 163 250.50 248Q180 333 138.50 454Q97 575 96 717Z"  horiz-adv-x="1609" vert-adv-y="2048"  />

      
      <glyph glyph-name="uni64" unicode="&#x64;" d="M182 0L182 1434L723 1434Q859 1433 974.50 1393Q1090 1353 1171.50 1284Q1253 1215 1311 1123.50Q1369 1032 1396 929Q1423 826 1423 717Q1423 608 1396 505Q1369 402 1311 310.50Q1253 219 1171.50 150Q1090 81 974.50 41Q859 1 723 0L182 0M549 334L723 334Q806 334 872.50 367Q939 400 980.50 454Q1022 508 1044 576.50Q1066 645 1066 717Q1066 789 1044 857.50Q1022 926 980.50 980Q939 1034 872.50 1067Q806 1100 723 1100L549 1100L549 334Z"  horiz-adv-x="1519" vert-adv-y="2048"  />

      
      <glyph glyph-name="uni65" unicode="&#x65;" d="M182 0L182 1434L1077 1434L1077 1106L547 1106L547 903L1034 903L1034 578L547 578L547 326L1096 326L1096 0L182 0Z"  horiz-adv-x="1228" vert-adv-y="2048"  />

      
      <glyph glyph-name="uni66" unicode="&#x66;" d="M182 0L182 1434L1075 1434L1075 1106L555 1106L555 793L1016 793L1016 465L555 465L555 0L182 0Z"  horiz-adv-x="1175" vert-adv-y="2048"  />

      
      <glyph glyph-name="uni67" unicode="&#x67;" d="M94 717Q95 859 136.50 980.50Q178 1102 248.50 1187.50Q319 1273 413 1333.50Q507 1394 612.50 1423Q718 1452 829 1452Q918 1451 1002 1432.50Q1086 1414 1166 1374.50Q1246 1335 1310 1276.50Q1374 1218 1421.50 1133Q1469 1048 1489 944L1128 944Q1084 1035 1012 1075.50Q940 1116 829 1116Q662 1116 567.50 1002.50Q473 889 473 717Q473 538 570 431Q667 324 829 324Q945 324 1017 362.50Q1089 401 1137 500L831 500L831 817L1509 817Q1514 765 1514 709Q1514 659 1510 606Q1502 492 1468 397Q1431 289 1363 207Q1295 125 1208.50 77.50Q1122 30 1027 7Q932-16 829-16Q718-16 612.50 12.50Q507 41 413 101.50Q319 162 248.50 247Q178 332 136.50 453.50Q95 575 94 717Z"  horiz-adv-x="1617" vert-adv-y="2048"  />

      
      <glyph glyph-name="uni68" unicode="&#x68;" d="M184 0L184 1434L559 1434L559 913L1001 913L1001 1434L1376 1434L1376 0L1001 0L1001 575L559 575L559 0L184 0Z"  horiz-adv-x="1560" vert-adv-y="2048"  />

      
      <glyph glyph-name="uni69" unicode="&#x69;" d="M63 0L63 322L246 322L246 1114L78 1114L78 1434L776 1434L776 1114L608 1114L608 322L791 322L791 0L63 0Z"  horiz-adv-x="847" vert-adv-y="2048"  />

      
      <glyph glyph-name="uni6a" unicode="&#x6a;" d="M94 477L94 664L440 664L440 483Q440 401 494 356Q548 311 631 311Q713 311 761 355Q809 399 809 483L809 1108L600 1108L600 1434L1184 1434L1184 477Q1184 363 1139 268.50Q1094 174 1018 112.50Q942 51 842 17.50Q742-16 631-16Q482-16 361 41Q240 98 167 211.50Q94 325 94 477Z"  horiz-adv-x="1355" vert-adv-y="2048"  />

      
      <glyph glyph-name="uni6b" unicode="&#x6b;" d="M184 0L184 1434L557 1434L557 891L584 891Q685 891 754 922Q823 953 858 992Q893 1031 910.50 1111.50Q928 1192 930 1242.50Q932 1293 932 1396Q932 1421 932 1434L1309 1434Q1309 1426 1309 1411Q1309 1348 1308.50 1316Q1308 1284 1306 1226Q1304 1168 1299 1135.50Q1294 1103 1284.50 1052Q1275 1001 1261.50 968Q1248 935 1227 892Q1206 849 1179 817Q1152 785 1114.50 751Q1077 717 1032 688L1421 57L1421 0L1014 0L698 555Q649 547 557 547L557 0L184 0Z"  horiz-adv-x="1449" vert-adv-y="2048"  />

      
      <glyph glyph-name="uni6c" unicode="&#x6c;" d="M180 0L180 1434L549 1434L549 330L1069 330L1069 0L180 0Z"  horiz-adv-x="1138" vert-adv-y="2048"  />

      
      <glyph glyph-name="uni6d" unicode="&#x6d;" d="M180 0L180 1438L315 1438L877 815L1448 1438L1579 1438L1579 0L1204 0L1204 639L899 319L858 319L555 639L555 0L180 0Z"  horiz-adv-x="1761" vert-adv-y="2048"  />

      
      <glyph glyph-name="uni6e" unicode="&#x6e;" d="M182 0L182 1440L315 1440L1040 731L1040 1434L1415 1434L1415-2L1284-2L561 705L561 0L182 0Z"  horiz-adv-x="1597" vert-adv-y="2048"  />

      
      <glyph glyph-name="uni6f" unicode="&#x6f;" d="M94 715Q94 894 157 1039Q220 1184 323.50 1273Q427 1362 559.50 1410.50Q692 1459 829.50 1459Q967 1459 1099.50 1410.50Q1232 1362 1335.50 1273Q1439 1184 1502 1039Q1565 894 1565 715Q1565 535 1502 390Q1439 245 1335.50 155.50Q1232 66 1099.50 17.50Q967-31 829.50-31Q692-31 559.50 17.50Q427 66 323.50 155.50Q220 245 157 390Q94 535 94 715M471 715Q471 621 502 545Q533 469 583.50 422Q634 375 698.50 350Q763 325 830.50 325Q898 325 962.50 350Q1027 375 1077.50 422Q1128 469 1159 545Q1190 621 1190 715Q1190 808 1159 883.50Q1128 959 1077.50 1005.50Q1027 1052 962.50 1077Q898 1102 830.50 1102Q763 1102 698.50 1077Q634 1052 583.50 1005.50Q533 959 502 883.50Q471 808 471 715Z"  horiz-adv-x="1658" vert-adv-y="2048"  />

      
      <glyph glyph-name="uni70" unicode="&#x70;" d="M182 0L182 1434L813 1434Q924 1434 1016.50 1397Q1109 1360 1169 1298.50Q1229 1237 1270.50 1157Q1312 1077 1321 988Q1326 944 1326 900Q1326 856 1321 812Q1312 723 1270.50 643Q1229 563 1169 501.50Q1109 440 1016.50 403.50Q924 367 813 367L549 367L549 0L182 0M549 696L811 696Q852 696 885.50 718.50Q919 741 936.50 777Q954 813 962 856Q967 880 967 903Q967 923 964 944Q956 988 939 1024Q922 1060 888.50 1083Q855 1106 811 1106Q773 1107 728.50 1107Q684 1107 630.50 1106.50Q577 1106 549 1106L549 696Z"  horiz-adv-x="1421" vert-adv-y="2048"  />

      
      <glyph glyph-name="uni71" unicode="&#x71;" d="M96 715Q96 894 159 1039Q222 1184 325.50 1273Q429 1362 561.50 1410.50Q694 1459 831.50 1459Q969 1459 1101.50 1410.50Q1234 1362 1337.50 1273Q1441 1184 1504 1039Q1567 894 1567 715Q1567 471 1452 291L1599 47L1599 0L1227 0L1192 66Q1111 23 1020 0.50Q929-22 838-24Q831-24 825-24L654-4Q563 16 481 55.50Q399 95 328.50 158.50Q258 222 206.50 302Q155 382 125.50 488Q96 594 96 715M473 715Q473 621 504 545Q535 469 585 422Q635 375 699.50 350Q764 325 831.50 325Q899 325 963.50 350Q1028 375 1078 422Q1128 469 1159 545Q1190 621 1190 715Q1190 838 1137 928.50Q1084 1019 1004 1060Q924 1101 831.50 1101Q739 1101 659 1060Q579 1019 526 928.50Q473 838 473 715Z"  horiz-adv-x="1667" vert-adv-y="2048"  />

      
      <glyph glyph-name="uni72" unicode="&#x72;" d="M180 0L180 1434L809 1434Q911 1434 998 1404Q1085 1374 1145 1323.50Q1205 1273 1248 1205Q1290 1136 1308 1062Q1324 997 1324 928Q1324 918 1324 908Q1322 828 1297.50 755.50Q1273 683 1225.50 618Q1178 553 1112 508L1393 53L1393 0L983 0L737 422L547 422L547 0L180 0M547 752L809 752Q850 752 882.50 771.50Q915 791 932 822Q950 852 958 890Q963 910 963 930Q964 948 960 966Q952 1004 935 1035Q918 1066 885 1086Q852 1106 809 1106Q771 1107 727 1107Q683 1107 629.50 1106.50Q576 1106 547 1106L547 752Z"  horiz-adv-x="1431" vert-adv-y="2048"  />

      
      <glyph glyph-name="uni73" unicode="&#x73;" d="M82 438L436 438Q436 386 482 351Q528 316 594 308Q629 303 664 303Q694 302 726 306Q792 314 838.50 347Q885 380 885 428Q885 464 865.50 488Q846 512 806 525Q766 538 725.50 544Q685 550 623 553Q501 562 410 588Q319 614 248 664.50Q177 715 140 797Q103 879 102 993Q102 997 102 1001Q102 1123 159 1220Q218 1320 315 1371.50Q412 1423 530 1447Q589 1459 647.50 1459Q706 1459 765 1447Q883 1423 980 1372Q1078 1320 1138 1220Q1197 1123 1196 1001Q1196 997 1196 993L848 993Q848 1047 808 1082Q770 1118 712 1126Q686 1129 659 1129L596 1124Q538 1115 496 1080.50Q454 1046 451 997Q449 965 460 941.50Q471 918 489.50 903Q508 888 540.50 877.50Q573 867 603.50 862Q634 857 678 852Q737 846 773 841Q809 836 863.50 827Q918 818 951.50 807.50Q985 797 1029.50 779.50Q1074 762 1101 741Q1128 720 1157.50 689Q1187 658 1203.50 620.50Q1220 583 1230.50 534Q1241 485 1241 426Q1241 302 1176.50 204Q1112 106 1010 55Q906 4 782-20Q719-32 657-33Q596-33 534-21Q410 3 308 54.50Q206 106 143 207Q82 305 82 430Q82 434 82 438Z"  horiz-adv-x="1327" vert-adv-y="2048"  />

      
      <glyph glyph-name="uni74" unicode="&#x74;" d="M41 1106L41 1434L1106 1434L1106 1106L756 1106L756 0L393 0L393 1106L41 1106Z"  horiz-adv-x="1150" vert-adv-y="2048"  />

      
      <glyph glyph-name="uni75" unicode="&#x75;" d="M168 477L168 1434L518 1434L518 483Q518 401 584 355Q650 309 737 309Q824 309 889 355Q954 401 954 483L954 1434L1309 1434L1309 477Q1309 363 1261.50 267.50Q1214 172 1133.50 110Q1053 48 950.50 14Q848-20 737-20Q626-20 524 14Q422 48 342.50 110Q263 172 215.50 267.50Q168 363 168 477Z"  horiz-adv-x="1478" vert-adv-y="2048"  />

      
      <glyph glyph-name="uni76" unicode="&#x76;" d="M29 1378L29 1434L381 1434L717 621L727 621L1055 1434L1407 1434L1407 1378L799-16L643-16L29 1378Z"  horiz-adv-x="1437" vert-adv-y="2048"  />

      
      <glyph glyph-name="uni77" unicode="&#x77;" d="M31 1378L31 1434L401 1434L586 893L649 649L655 649L895 1411L1051 1411L1294 649L1300 649L1364 893L1546 1434L1911 1434L1911 1378L1413-14L1202-14L973 676L967 676L737-14L535-14L31 1378Z"  horiz-adv-x="1943" vert-adv-y="2048"  />

      
      <glyph glyph-name="uni78" unicode="&#x78;" d="M25 0L25 55L487 760L74 1378L74 1434L455 1434L682 1061L692 1061L922 1434L1300 1434L1300 1378L887 760L1352 55L1352 0L956 0L694 451L682 451L420 0L25 0Z"  horiz-adv-x="1378" vert-adv-y="2048"  />

      
      <glyph glyph-name="uni79" unicode="&#x79;" d="M18 1378L18 1434L414 1434L674 956L688 956L948 1434L1346 1434L1346 1378L862 602L862 0L500 0L500 602L18 1378Z"  horiz-adv-x="1361" vert-adv-y="2048"  />

      
      <glyph glyph-name="uni7a" unicode="&#x7a;" d="M47 0L47 55L633 1106L100 1106L100 1434L1186 1434L1186 1378L598 328L1192 328L1192 0L47 0Z"  horiz-adv-x="1251" vert-adv-y="2048"  />

      
      <glyph glyph-name="unia1" unicode="&#xa1;" d="M158-403L180 623L537 623L567-403L158-403M158 864Q158 947 215 999Q272 1051 358 1051Q444 1051 501.50 999Q559 947 559 864Q559 779 502 727.50Q445 676 358 676Q272 676 215 727.50Q158 779 158 864Z"  horiz-adv-x="722" vert-adv-y="2048"  />

      
      <glyph glyph-name="unia8" unicode="&#xa8;" d="M133 1348Q133 1434 191 1485Q249 1536 336 1536Q423 1536 482 1484.50Q541 1433 541 1348Q541 1265 482 1213Q423 1161 336 1161Q250 1161 191.50 1213Q133 1265 133 1348M676 1348Q676 1434 734 1485Q792 1536 879 1536Q967 1536 1024 1485Q1081 1434 1081 1348Q1081 1264 1024 1212.50Q967 1161 879 1161Q793 1161 734.50 1213Q676 1265 676 1348Z"  horiz-adv-x="1232" vert-adv-y="2048"  />

      
      <glyph glyph-name="unib4" unicode="&#xb4;" d="M119 1159L119 1192L274 1534L586 1430L586 1399L375 1159L119 1159Z"  horiz-adv-x="688" vert-adv-y="2048"  />

      
      <glyph glyph-name="unib8" unicode="&#xb8;" d="M119-449L135-258Q157-276 194.50-283Q232-290 264.50-280Q297-270 305-244Q316-206 283.50-189Q251-172 207-172L260 31L489 23L459-113Q522-123 559-162Q596-201 599.50-252Q603-303 584-358Q557-423 500.50-461Q444-499 377.50-506Q311-513 242-498Q173-483 119-449Z"  horiz-adv-x="710" vert-adv-y="2048"  />

      
      <glyph glyph-name="unibf" unicode="&#xbf;" d="M78 20Q78 81 94.50 136Q111 191 137.50 232.50Q164 274 195.50 312.50Q227 351 258 387Q289 423 314 459.50Q339 496 353.50 541.50Q368 587 365 637L727 637Q734 571 722.50 514Q711 457 686 415Q661 373 629.50 335Q598 297 564.50 262.50Q531 228 502 194Q473 160 453 117.50Q433 75 430 29Q427-24 470-55Q513-86 569-86Q628-84 668.50-49Q709-14 709 55L1018 55Q1020-58 985-147.50Q950-237 886-292.50Q822-348 739-378Q656-408 559-410Q450-413 358.50-380Q267-347 206-288Q145-229 111.50-149.50Q78-70 78 20M344 879Q344 962 402 1013.50Q460 1065 547 1065Q632 1065 690 1013.50Q748 962 748 879Q748 795 690 742.50Q632 690 547 690Q460 690 402 742Q344 794 344 879Z"  horiz-adv-x="1112" vert-adv-y="2048"  />

      
      <glyph glyph-name="unic0" unicode="&#xc0;" d="M2 0L2 53L647 1452L805 1452L1452 53L1452 0L1094 0L1010 180L444 180L360 0L2 0M408 1782L408 1812L719 1917L874 1575L874 1542L618 1542L408 1782M563 494L891 494L725 870L563 494Z"  horiz-adv-x="1458" vert-adv-y="2048"  />

      
      <glyph glyph-name="unic1" unicode="&#xc1;" d="M2 0L2 53L647 1452L805 1452L1452 53L1452 0L1094 0L1010 180L444 180L360 0L2 0M563 494L891 494L725 870L563 494M571 1538L571 1571L727 1913L1038 1808L1038 1778L827 1538L571 1538Z"  horiz-adv-x="1458" vert-adv-y="2048"  />

      
      <glyph glyph-name="unic2" unicode="&#xc2;" d="M2 0L2 53L647 1452L805 1452L1452 53L1452 0L1094 0L1010 180L444 180L360 0L2 0M319 1528L319 1561L537 1853L909 1853L1128 1561L1128 1528L856 1528L723 1683L598 1528L319 1528M563 494L891 494L725 870L563 494Z"  horiz-adv-x="1458" vert-adv-y="2048"  />

      
      <glyph glyph-name="unic3" unicode="&#xc3;" d="M2 0L2 53L647 1452L805 1452L1452 53L1452 0L1094 0L1010 180L444 180L360 0L2 0M293 1628Q348 1793 456.50 1851.50Q565 1910 721 1849Q724 1848 740.50 1841Q757 1834 763 1832Q769 1830 785.50 1824.50Q802 1819 809.50 1817.50Q817 1816 832 1814Q847 1812 855 1814Q863 1816 875 1819Q887 1822 894 1829.50Q901 1837 908 1848Q915 1859 920 1874Q938 1866 1003.50 1838.50Q1069 1811 1104 1794Q1071 1643 958 1574.50Q845 1506 707 1561Q701 1564 677.50 1574Q654 1584 640 1589.50Q626 1595 602 1603Q578 1611 561 1611Q544 1611 525 1607.50Q506 1604 492 1590Q478 1576 469 1554Q372 1592 293 1628M563 494L891 494L725 870L563 494Z"  horiz-adv-x="1458" vert-adv-y="2048"  />

      
      <glyph glyph-name="unic4" unicode="&#xc4;" d="M2 0L2 53L647 1452L805 1452L1452 53L1452 0L1094 0L1010 180L444 180L360 0L2 0M254 1700Q254 1786 312 1837Q370 1888 457 1888Q544 1888 603 1836.50Q662 1785 662 1700Q662 1617 603 1565Q544 1513 457 1513Q371 1513 312.50 1565Q254 1617 254 1700M563 494L891 494L725 870L563 494M797 1700Q797 1786 854.50 1837Q912 1888 999 1888Q1087 1888 1144.50 1837Q1202 1786 1202 1700Q1202 1616 1144.50 1564.50Q1087 1513 999 1513Q913 1513 855 1565Q797 1617 797 1700Z"  horiz-adv-x="1458" vert-adv-y="2048"  />

      
      <glyph glyph-name="unic5" unicode="&#xc5;" d="M2 0L2 53L614 1382Q540 1411 496.50 1471.50Q453 1532 453 1616Q453 1728 531.50 1796Q610 1864 727 1864Q842 1864 919.50 1796Q997 1728 997 1616Q997 1532 953 1471.50Q909 1411 836 1382L1452 53L1452 0L1094 0L1010 180L444 180L360 0L2 0M563 494L891 494L725 872L563 494M641 1616Q641 1580 665 1560Q689 1540 727 1540Q762 1540 786.50 1560.50Q811 1581 811 1616Q811 1650 786.50 1671Q762 1692 727 1692Q689 1692 665 1671.50Q641 1651 641 1616Z"  horiz-adv-x="1458" vert-adv-y="2048"  />

      
      <glyph glyph-name="unic6" unicode="&#xc6;" d="M2 0L2 55L643 1434L1622 1434L1622 1108L1155 1108L1155 901L1581 901L1581 575L1155 575L1155 326L1640 326L1640 0L813 0L813 313L500 313Q393 67 362 0L2 0M627 645L813 645L819 1110L817 1110L627 645Z"  horiz-adv-x="1773" vert-adv-y="2048"  />

      
      <glyph glyph-name="unic7" unicode="&#xc7;" d="M96 717Q97 859 138.50 980Q180 1101 250.50 1186Q321 1271 415 1331.50Q509 1392 614.50 1421Q720 1450 831 1450Q922 1450 1010 1430.50Q1098 1411 1181 1368Q1264 1325 1329.50 1262.50Q1395 1200 1442 1108Q1489 1016 1505 905L1145 905Q1071 1116 831 1116Q670 1116 572.50 1006Q475 896 475 717Q475 611 518 521Q561 431 643.50 375.50Q726 320 831 319Q951 319 1036.50 378.50Q1122 438 1151 551L1511 551Q1497 446 1459.50 358Q1422 270 1369 208Q1316 146 1247 100Q1178 54 1103.50 28Q1029 2 946-8L926-100Q989-110 1026.50-149.50Q1064-189 1067-239.50Q1070-290 1051-346Q1024-411 967.50-449Q911-487 844.50-493.50Q778-500 709-485Q640-470 586-436L602-246Q624-264 661.50-271Q699-278 731.50-267.50Q764-257 772-231Q783-193 750.50-176.50Q718-160 674-160L713-6Q615 7 525.50 43Q436 79 357.50 141Q279 203 221.50 285Q164 367 130.50 478Q97 589 96 717Z"  horiz-adv-x="1609" vert-adv-y="2048"  />

      
      <glyph glyph-name="unic8" unicode="&#xc8;" d="M182 0L182 1434L1077 1434L1077 1106L547 1106L547 903L1034 903L1034 578L547 578L547 326L1096 326L1096 0L182 0M340 1782L340 1812L651 1917L807 1575L807 1542L551 1542L340 1782Z"  horiz-adv-x="1228" vert-adv-y="2048"  />

      
      <glyph glyph-name="unic9" unicode="&#xc9;" d="M182 0L182 1434L1077 1434L1077 1106L547 1106L547 903L1034 903L1034 578L547 578L547 326L1096 326L1096 0L182 0M483 1538L483 1571L639 1913L950 1808L950 1778L739 1538L483 1538Z"  horiz-adv-x="1228" vert-adv-y="2048"  />

      
      <glyph glyph-name="unica" unicode="&#xca;" d="M182 0L182 1434L1077 1434L1077 1106L547 1106L547 903L1034 903L1034 578L547 578L547 326L1096 326L1096 0L182 0M223 1536L223 1569L440 1862L813 1862L1032 1569L1032 1536L760 1536L627 1692L502 1536L223 1536Z"  horiz-adv-x="1228" vert-adv-y="2048"  />

      
      <glyph glyph-name="unicb" unicode="&#xcb;" d="M182 0L182 1434L1077 1434L1077 1106L547 1106L547 903L1034 903L1034 578L547 578L547 326L1096 326L1096 0L182 0M182 1706Q182 1789 239 1839.50Q296 1890 381 1890Q465 1890 522.50 1839.50Q580 1789 580 1706Q580 1626 522.50 1576Q465 1526 381 1526Q296 1526 239 1576Q182 1626 182 1706M711 1706Q711 1789 767.50 1839.50Q824 1890 909 1890Q994 1890 1050 1839.50Q1106 1789 1106 1706Q1106 1626 1050 1576Q994 1526 909 1526Q824 1526 767.50 1576Q711 1626 711 1706Z"  horiz-adv-x="1228" vert-adv-y="2048"  />

      
      <glyph glyph-name="unicc" unicode="&#xcc;" d="M63 0L63 322L246 322L246 1114L78 1114L78 1434L776 1434L776 1114L608 1114L608 322L791 322L791 0L63 0M104 1778L104 1808L416 1913L571 1571L571 1538L315 1538L104 1778Z"  horiz-adv-x="847" vert-adv-y="2048"  />

      
      <glyph glyph-name="unicd" unicode="&#xcd;" d="M63 0L63 322L246 322L246 1114L78 1114L78 1434L776 1434L776 1114L608 1114L608 322L791 322L791 0L63 0M279 1534L279 1567L434 1909L745 1804L745 1774L535 1534L279 1534Z"  horiz-adv-x="847" vert-adv-y="2048"  />

      
      <glyph glyph-name="unice" unicode="&#xce;" d="M20 1538L20 1571L238 1864L610 1864L829 1571L829 1538L557 1538L424 1694L299 1538L20 1538M63 0L63 322L246 322L246 1114L78 1114L78 1434L776 1434L776 1114L608 1114L608 322L791 322L791 0L63 0Z"  horiz-adv-x="847" vert-adv-y="2048"  />

      
      <glyph glyph-name="unicf" unicode="&#xcf;" d="M-45 1722Q-45 1808 13 1859.50Q71 1911 158 1911Q245 1911 303.50 1859.50Q362 1808 362 1722Q362 1639 303.50 1587.50Q245 1536 158 1536Q71 1536 13 1587.50Q-45 1639-45 1722M63 0L63 322L246 322L246 1114L78 1114L78 1434L776 1434L776 1114L608 1114L608 322L791 322L791 0L63 0M498 1722Q498 1808 555.50 1859.50Q613 1911 700 1911Q788 1911 845.50 1859.50Q903 1808 903 1722Q903 1639 845.50 1587.50Q788 1536 700 1536Q614 1536 556 1587.50Q498 1639 498 1722Z"  horiz-adv-x="847" vert-adv-y="2048"  />

      
      <glyph glyph-name="unid0" unicode="&#xd0;" d="M10 553L10 874L182 874L182 1434L723 1434Q859 1433 974.50 1393Q1090 1353 1171.50 1284Q1253 1215 1311 1123.50Q1369 1032 1396 929Q1423 826 1423 717Q1423 608 1396 505Q1369 402 1311 310.50Q1253 219 1171.50 150Q1090 81 974.50 41Q859 1 723 0L182 0L182 553L10 553M549 334L723 334Q806 334 872.50 367Q939 400 980.50 454Q1022 508 1044 576.50Q1066 645 1066 717Q1066 789 1044 857.50Q1022 926 980.50 980Q939 1034 872.50 1067Q806 1100 723 1100L549 1100L549 874L737 874L737 553L549 553L549 334Z"  horiz-adv-x="1519" vert-adv-y="2048"  />

      
      <glyph glyph-name="unid1" unicode="&#xd1;" d="M182 0L182 1440L315 1440L1040 731L1040 1434L1415 1434L1415-2L1284-2L561 705L561 0L182 0M362 1628Q417 1793 526 1851.50Q635 1910 791 1849Q792 1848 812.50 1840Q833 1832 838.50 1830Q844 1828 863 1821.50Q882 1815 890 1815Q898 1815 914 1813.50Q930 1812 938.50 1816.50Q947 1821 958 1827Q969 1833 976.50 1845Q984 1857 989 1874Q1009 1865 1074 1838Q1139 1811 1174 1794Q1141 1643 1027.50 1574.50Q914 1506 776 1561Q769 1564 746.50 1574Q724 1584 709.50 1589.50Q695 1595 671.50 1603Q648 1611 631 1611Q614 1611 595 1607.50Q576 1604 562 1590Q548 1576 539 1554Q436 1594 362 1628Z"  horiz-adv-x="1597" vert-adv-y="2048"  />

      
      <glyph glyph-name="unid2" unicode="&#xd2;" d="M94 715Q94 894 157 1039Q220 1184 323.50 1273Q427 1362 559.50 1410.50Q692 1459 829.50 1459Q967 1459 1099.50 1410.50Q1232 1362 1335.50 1273Q1439 1184 1502 1039Q1565 894 1565 715Q1565 535 1502 390Q1439 245 1335.50 155.50Q1232 66 1099.50 17.50Q967-31 829.50-31Q692-31 559.50 17.50Q427 66 323.50 155.50Q220 245 157 390Q94 535 94 715M471 715Q471 621 502 545Q533 469 583.50 422Q634 375 698.50 350Q763 325 830.50 325Q898 325 962.50 350Q1027 375 1077.50 422Q1128 469 1159 545Q1190 621 1190 715Q1190 808 1159 883.50Q1128 959 1077.50 1005.50Q1027 1052 962.50 1077Q898 1102 830.50 1102Q763 1102 698.50 1077Q634 1052 583.50 1005.50Q533 959 502 883.50Q471 808 471 715M508 1796L508 1827L819 1931L975 1589L975 1556L719 1556L508 1796Z"  horiz-adv-x="1658" vert-adv-y="2048"  />

      
      <glyph glyph-name="unid3" unicode="&#xd3;" d="M94 715Q94 894 157 1039Q220 1184 323.50 1273Q427 1362 559.50 1410.50Q692 1459 829.50 1459Q967 1459 1099.50 1410.50Q1232 1362 1335.50 1273Q1439 1184 1502 1039Q1565 894 1565 715Q1565 535 1502 390Q1439 245 1335.50 155.50Q1232 66 1099.50 17.50Q967-31 829.50-31Q692-31 559.50 17.50Q427 66 323.50 155.50Q220 245 157 390Q94 535 94 715M471 715Q471 621 502 545Q533 469 583.50 422Q634 375 698.50 350Q763 325 830.50 325Q898 325 962.50 350Q1027 375 1077.50 422Q1128 469 1159 545Q1190 621 1190 715Q1190 808 1159 883.50Q1128 959 1077.50 1005.50Q1027 1052 962.50 1077Q898 1102 830.50 1102Q763 1102 698.50 1077Q634 1052 583.50 1005.50Q533 959 502 883.50Q471 808 471 715M653 1569L653 1602L809 1944L1120 1839L1120 1808L909 1569L653 1569Z"  horiz-adv-x="1658" vert-adv-y="2048"  />

      
      <glyph glyph-name="unid4" unicode="&#xd4;" d="M94 715Q94 894 157 1039Q220 1184 323.50 1273Q427 1362 559.50 1410.50Q692 1459 829.50 1459Q967 1459 1099.50 1410.50Q1232 1362 1335.50 1273Q1439 1184 1502 1039Q1565 894 1565 715Q1565 535 1502 390Q1439 245 1335.50 155.50Q1232 66 1099.50 17.50Q967-31 829.50-31Q692-31 559.50 17.50Q427 66 323.50 155.50Q220 245 157 390Q94 535 94 715M424 1563L424 1595L641 1888L1014 1888L1233 1595L1233 1563L961 1563L827 1718L702 1563L424 1563M471 715Q471 621 502 545Q533 469 583.50 422Q634 375 698.50 350Q763 325 830.50 325Q898 325 962.50 350Q1027 375 1077.50 422Q1128 469 1159 545Q1190 621 1190 715Q1190 808 1159 883.50Q1128 959 1077.50 1005.50Q1027 1052 962.50 1077Q898 1102 830.50 1102Q763 1102 698.50 1077Q634 1052 583.50 1005.50Q533 959 502 883.50Q471 808 471 715Z"  horiz-adv-x="1658" vert-adv-y="2048"  />

      
      <glyph glyph-name="unid5" unicode="&#xd5;" d="M94 715Q94 894 157 1039Q220 1184 323.50 1273Q427 1362 559.50 1410.50Q692 1459 829.50 1459Q967 1459 1099.50 1410.50Q1232 1362 1335.50 1273Q1439 1184 1502 1039Q1565 894 1565 715Q1565 535 1502 390Q1439 245 1335.50 155.50Q1232 66 1099.50 17.50Q967-31 829.50-31Q692-31 559.50 17.50Q427 66 323.50 155.50Q220 245 157 390Q94 535 94 715M410 1653Q465 1818 573.50 1876.50Q682 1935 838 1874Q841 1873 860 1865Q879 1857 885.50 1855Q892 1853 910 1846.50Q928 1840 937 1839.50Q946 1839 961 1837.50Q976 1836 985 1840.50Q994 1845 1005 1851Q1016 1857 1023.50 1869Q1031 1881 1036 1898Q1059 1888 1123 1861.50Q1187 1835 1221 1819Q1188 1668 1074.50 1599Q961 1530 823 1585Q816 1588 793.50 1598Q771 1608 756.50 1614Q742 1620 718.50 1627.50Q695 1635 677.50 1635Q660 1635 641.50 1632Q623 1629 609 1615Q595 1601 586 1579Q490 1617 410 1653M471 715Q471 621 502 545Q533 469 583.50 422Q634 375 698.50 350Q763 325 830.50 325Q898 325 962.50 350Q1027 375 1077.50 422Q1128 469 1159 545Q1190 621 1190 715Q1190 808 1159 883.50Q1128 959 1077.50 1005.50Q1027 1052 962.50 1077Q898 1102 830.50 1102Q763 1102 698.50 1077Q634 1052 583.50 1005.50Q533 959 502 883.50Q471 808 471 715Z"  horiz-adv-x="1658" vert-adv-y="2048"  />

      
      <glyph glyph-name="unid6" unicode="&#xd6;" d="M94 715Q94 894 157 1039Q220 1184 323.50 1273Q427 1362 559.50 1410.50Q692 1459 829.50 1459Q967 1459 1099.50 1410.50Q1232 1362 1335.50 1273Q1439 1184 1502 1039Q1565 894 1565 715Q1565 535 1502 390Q1439 245 1335.50 155.50Q1232 66 1099.50 17.50Q967-31 829.50-31Q692-31 559.50 17.50Q427 66 323.50 155.50Q220 245 157 390Q94 535 94 715M354 1722Q354 1808 412 1859.50Q470 1911 557 1911Q644 1911 703 1859.50Q762 1808 762 1722Q762 1639 703 1587.50Q644 1536 557 1536Q470 1536 412 1587.50Q354 1639 354 1722M471 715Q471 621 502 545Q533 469 583.50 422Q634 375 698.50 350Q763 325 830.50 325Q898 325 962.50 350Q1027 375 1077.50 422Q1128 469 1159 545Q1190 621 1190 715Q1190 808 1159 883.50Q1128 959 1077.50 1005.50Q1027 1052 962.50 1077Q898 1102 830.50 1102Q763 1102 698.50 1077Q634 1052 583.50 1005.50Q533 959 502 883.50Q471 808 471 715M897 1722Q897 1808 955 1859.50Q1013 1911 1100 1911Q1188 1911 1245.50 1859.50Q1303 1808 1303 1722Q1303 1639 1245.50 1587.50Q1188 1536 1100 1536Q1013 1536 955 1587.50Q897 1639 897 1722Z"  horiz-adv-x="1658" vert-adv-y="2048"  />

      
      <glyph glyph-name="unid8" unicode="&#xd8;" d="M94 721Q94 869 137 994.50Q180 1120 253.50 1206.50Q327 1293 425 1354Q523 1415 632 1441.50Q741 1468 855.50 1465Q970 1462 1077 1427L1161 1565L1509 1565L1509 1526L1350 1264Q1563 1058 1563 721Q1563 576 1521.50 452.50Q1480 329 1408.50 242.50Q1337 156 1242 94.50Q1147 33 1040.50 5.50Q934-22 821.50-21.50Q709-21 604 10L518-131L168-131L168-90L324 164Q216 261 155 401.50Q94 542 94 721M473 721Q473 628 503.50 552.50Q534 477 584.50 430.50Q635 384 699 359Q763 334 830.50 334Q898 334 962 359Q1026 384 1076.50 430.50Q1127 477 1157.50 552.50Q1188 628 1188 721Q1188 815 1157.50 890.50Q1127 966 1076.50 1012.50Q1026 1059 962 1084.50Q898 1110 830.50 1110Q763 1110 699 1084.50Q635 1059 584.50 1012.50Q534 966 503.50 890.50Q473 815 473 721Z"  horiz-adv-x="1656" vert-adv-y="2048"  />

      
      <glyph glyph-name="unid9" unicode="&#xd9;" d="M168 477L168 1434L518 1434L518 483Q518 401 584 355Q650 309 737 309Q824 309 889 355Q954 401 954 483L954 1434L1305 1434L1305 477Q1305 362 1258 267Q1211 172 1131.50 110Q1052 48 950 14Q848-20 737-20Q626-20 524 14Q422 48 342.50 110Q263 172 215.50 267.50Q168 363 168 477M418 1782L418 1812L729 1917L885 1575L885 1542L629 1542L418 1782Z"  horiz-adv-x="1478" vert-adv-y="2048"  />

      
      <glyph glyph-name="unida" unicode="&#xda;" d="M168 477L168 1434L518 1434L518 483Q518 401 584 355Q650 309 737 309Q824 309 889 355Q954 401 954 483L954 1434L1305 1434L1305 477Q1305 362 1258 267Q1211 172 1131.50 110Q1052 48 950 14Q848-20 737-20Q626-20 524 14Q422 48 342.50 110Q263 172 215.50 267.50Q168 363 168 477M571 1542L571 1575L727 1917L1038 1812L1038 1782L827 1542L571 1542Z"  horiz-adv-x="1478" vert-adv-y="2048"  />

      
      <glyph glyph-name="unidb" unicode="&#xdb;" d="M168 477L168 1434L518 1434L518 483Q518 401 584 355Q650 309 737 309Q824 309 889 355Q954 401 954 483L954 1434L1305 1434L1305 477Q1305 362 1258 267Q1211 172 1131.50 110Q1052 48 950 14Q848-20 737-20Q626-20 524 14Q422 48 342.50 110Q263 172 215.50 267.50Q168 363 168 477M334 1536L334 1569L551 1862L924 1862L1143 1569L1143 1536L870 1536L737 1692L612 1536L334 1536Z"  horiz-adv-x="1478" vert-adv-y="2048"  />

      
      <glyph glyph-name="unidc" unicode="&#xdc;" d="M168 477L168 1434L518 1434L518 483Q518 401 584 355Q650 309 737 309Q824 309 889 355Q954 401 954 483L954 1434L1305 1434L1305 477Q1305 362 1258 267Q1211 172 1131.50 110Q1052 48 950 14Q848-20 737-20Q626-20 524 14Q422 48 342.50 110Q263 172 215.50 267.50Q168 363 168 477M274 1714Q274 1800 332 1851.50Q390 1903 477 1903Q564 1903 623 1851.50Q682 1800 682 1714Q682 1631 623 1579.50Q564 1528 477 1528Q390 1528 332 1579.50Q274 1631 274 1714M817 1714Q817 1800 875 1851.50Q933 1903 1020 1903Q1108 1903 1165.50 1851.50Q1223 1800 1223 1714Q1223 1631 1165.50 1579.50Q1108 1528 1020 1528Q933 1528 875 1579.50Q817 1631 817 1714Z"  horiz-adv-x="1478" vert-adv-y="2048"  />

      
      <glyph glyph-name="unidd" unicode="&#xdd;" d="M18 1378L18 1434L414 1434L674 956L688 956L948 1434L1346 1434L1346 1378L862 602L862 0L500 0L500 602L18 1378M504 1534L504 1567L659 1909L971 1804L971 1774L760 1534L504 1534Z"  horiz-adv-x="1361" vert-adv-y="2048"  />

      
      <glyph glyph-name="unide" unicode="&#xde;" d="M182 0L182 1434L549 1434L549 1251L813 1251Q924 1251 1016.50 1214Q1109 1177 1169 1115.50Q1229 1054 1270.50 974Q1312 894 1321 805.50Q1330 717 1321 628.50Q1312 540 1270.50 460Q1229 380 1169 318.50Q1109 257 1016.50 220.50Q924 184 813 184L549 184L549 0L182 0M549 514L811 514Q852 514 885.50 536.50Q919 559 936.50 595Q954 631 962.50 674.50Q971 718 963.50 762Q956 806 939 842Q922 878 888.50 901Q855 924 811 924Q773 925 728.50 925Q684 925 630.50 924.50Q577 924 549 924L549 514Z"  horiz-adv-x="1421" vert-adv-y="2048"  />

      
      <glyph glyph-name="unie0" unicode="&#xe0;" d="M2 0L2 53L647 1452L805 1452L1452 53L1452 0L1094 0L1010 180L444 180L360 0L2 0M401 1778L401 1808L713 1913L868 1571L868 1538L612 1538L401 1778M565 496L889 496L725 872L565 496Z"  horiz-adv-x="1458" vert-adv-y="2048"  />

      
      <glyph glyph-name="unie1" unicode="&#xe1;" d="M2 0L2 53L647 1452L805 1452L1452 53L1452 0L1094 0L1010 180L444 180L360 0L2 0M565 496L889 496L725 872L565 496M594 1542L594 1575L750 1917L1061 1812L1061 1782L850 1542L594 1542Z"  horiz-adv-x="1458" vert-adv-y="2048"  />

      
      <glyph glyph-name="unie2" unicode="&#xe2;" d="M2 0L2 53L647 1452L805 1452L1452 53L1452 0L1094 0L1010 180L444 180L360 0L2 0M324 1522L324 1554L541 1847L913 1847L1133 1554L1133 1522L860 1522L727 1677L602 1522L324 1522M565 496L889 496L725 872L565 496Z"  horiz-adv-x="1458" vert-adv-y="2048"  />

      
      <glyph glyph-name="unie3" unicode="&#xe3;" d="M2 0L2 53L647 1452L805 1452L1452 53L1452 0L1094 0L1010 180L444 180L360 0L2 0M324 1608Q379 1773 487.50 1831.50Q596 1890 752 1829Q755 1828 774 1820Q793 1812 799.50 1810Q806 1808 824 1801.50Q842 1795 851 1794.50Q860 1794 875 1792.50Q890 1791 899 1795.50Q908 1800 919 1806Q930 1812 937.50 1824Q945 1836 950 1853Q973 1843 1037 1816.50Q1101 1790 1135 1774Q1102 1623 988.50 1554Q875 1485 737 1540Q730 1543 707.50 1553Q685 1563 670.50 1569Q656 1575 632.50 1582.50Q609 1590 591.50 1590Q574 1590 555.50 1587Q537 1584 523 1570Q509 1556 500 1534Q403 1572 324 1608M565 496L889 496L725 872L565 496Z"  horiz-adv-x="1458" vert-adv-y="2048"  />

      
      <glyph glyph-name="unie4" unicode="&#xe4;" d="M2 0L2 53L647 1452L805 1452L1452 53L1452 0L1094 0L1010 180L444 180L360 0L2 0M254 1686Q254 1772 312 1823Q370 1874 457 1874Q544 1874 603 1822.50Q662 1771 662 1686Q662 1603 603 1551Q544 1499 457 1499Q371 1499 312.50 1551Q254 1603 254 1686M565 496L889 496L725 872L565 496M797 1686Q797 1772 854.50 1823Q912 1874 999 1874Q1087 1874 1144.50 1823Q1202 1772 1202 1686Q1202 1602 1144.50 1550.50Q1087 1499 999 1499Q913 1499 855 1551Q797 1603 797 1686Z"  horiz-adv-x="1458" vert-adv-y="2048"  />

      
      <glyph glyph-name="unie5" unicode="&#xe5;" d="M2 0L2 53L614 1382Q540 1411 496.50 1471.50Q453 1532 453 1616Q453 1728 531.50 1796Q610 1864 727 1864Q842 1864 919.50 1796Q997 1728 997 1616Q997 1532 953 1471.50Q909 1411 836 1382L1452 53L1452 0L1094 0L1010 180L444 180L360 0L2 0M563 494L891 494L725 872L563 494M641 1616Q641 1580 665 1560Q689 1540 727 1540Q762 1540 786.50 1560.50Q811 1581 811 1616Q811 1650 786.50 1671Q762 1692 727 1692Q689 1692 665 1671.50Q641 1651 641 1616Z"  horiz-adv-x="1458" vert-adv-y="2048"  />

      
      <glyph glyph-name="unie6" unicode="&#xe6;" d="M2 0L2 55L643 1434L1622 1434L1622 1108L1155 1108L1155 901L1581 901L1581 575L1155 575L1155 326L1640 326L1640 0L813 0L813 313L500 313Q393 67 362 0L2 0M627 645L813 645L819 1110L817 1110L627 645Z"  horiz-adv-x="1773" vert-adv-y="2048"  />

      
      <glyph glyph-name="unie7" unicode="&#xe7;" d="M96 717Q97 859 138.50 980Q180 1101 250.50 1186Q321 1271 415 1331.50Q509 1392 614.50 1421Q720 1450 831 1450Q922 1450 1010 1430.50Q1098 1411 1181 1368Q1264 1325 1329.50 1262.50Q1395 1200 1442 1108Q1489 1016 1505 905L1145 905Q1071 1116 831 1116Q670 1116 572.50 1006Q475 896 475 717Q475 611 518 521Q561 431 643.50 375.50Q726 320 831 319Q951 319 1036.50 378.50Q1122 438 1151 551L1511 551Q1497 446 1459.50 358Q1422 270 1369 208Q1316 146 1247 100Q1178 54 1103.50 28Q1029 2 946-8L926-100Q989-110 1026.50-149.50Q1064-189 1067-239.50Q1070-290 1051-346Q1024-411 967.50-449Q911-487 844.50-493.50Q778-500 709-485Q640-470 586-436L602-246Q624-264 661.50-271Q699-278 731.50-267.50Q764-257 772-231Q783-193 750.50-176.50Q718-160 674-160L713-6Q615 7 525.50 43Q436 79 357.50 141Q279 203 221.50 285Q164 367 130.50 478Q97 589 96 717Z"  horiz-adv-x="1609" vert-adv-y="2048"  />

      
      <glyph glyph-name="unie8" unicode="&#xe8;" d="M182 0L182 1434L1077 1434L1077 1106L547 1106L547 903L1034 903L1034 578L547 578L547 326L1096 326L1096 0L182 0M342 1772L342 1802L653 1907L809 1565L809 1532L553 1532L342 1772Z"  horiz-adv-x="1228" vert-adv-y="2048"  />

      
      <glyph glyph-name="unie9" unicode="&#xe9;" d="M182 0L182 1434L1077 1434L1077 1106L547 1106L547 903L1034 903L1034 578L547 578L547 326L1096 326L1096 0L182 0M465 1528L465 1561L621 1903L932 1798L932 1767L721 1528L465 1528Z"  horiz-adv-x="1228" vert-adv-y="2048"  />

      
      <glyph glyph-name="uniea" unicode="&#xea;" d="M182 0L182 1434L1077 1434L1077 1106L547 1106L547 903L1034 903L1034 578L547 578L547 326L1096 326L1096 0L182 0M223 1532L223 1565L440 1858L813 1858L1032 1565L1032 1532L760 1532L627 1688L502 1532L223 1532Z"  horiz-adv-x="1228" vert-adv-y="2048"  />

      
      <glyph glyph-name="unieb" unicode="&#xeb;" d="M182 0L182 1434L1077 1434L1077 1106L547 1106L547 903L1034 903L1034 578L547 578L547 326L1096 326L1096 0L182 0M190 1696Q190 1777 244.50 1825.50Q299 1874 381 1874Q463 1874 518 1825.50Q573 1777 573 1696Q573 1619 517.50 1570.50Q462 1522 381 1522Q300 1522 245 1570.50Q190 1619 190 1696M700 1696Q700 1777 754.50 1825.50Q809 1874 891 1874Q974 1874 1027.50 1826Q1081 1778 1081 1696Q1081 1619 1027.50 1570.50Q974 1522 891 1522Q810 1522 755 1570.50Q700 1619 700 1696Z"  horiz-adv-x="1228" vert-adv-y="2048"  />

      
      <glyph glyph-name="uniec" unicode="&#xec;" d="M63 0L63 322L246 322L246 1114L78 1114L78 1434L776 1434L776 1114L608 1114L608 322L791 322L791 0L63 0M98 1767L98 1798L410 1903L565 1561L565 1528L309 1528L98 1767Z"  horiz-adv-x="847" vert-adv-y="2048"  />

      
      <glyph glyph-name="unied" unicode="&#xed;" d="M63 0L63 322L246 322L246 1114L78 1114L78 1434L776 1434L776 1114L608 1114L608 322L791 322L791 0L63 0M270 1532L270 1565L426 1907L737 1802L737 1772L526 1532L270 1532Z"  horiz-adv-x="847" vert-adv-y="2048"  />

      
      <glyph glyph-name="uniee" unicode="&#xee;" d="M20 1532L20 1565L238 1858L610 1858L829 1565L829 1532L557 1532L424 1688L299 1532L20 1532M63 0L63 322L246 322L246 1114L78 1114L78 1434L776 1434L776 1114L608 1114L608 322L791 322L791 0L63 0Z"  horiz-adv-x="847" vert-adv-y="2048"  />

      
      <glyph glyph-name="unief" unicode="&#xef;" d="M-49 1706Q-49 1792 9 1843Q67 1894 154 1894Q241 1894 299.50 1843Q358 1792 358 1706Q358 1623 299.50 1571.50Q241 1520 154 1520Q67 1520 9 1571.50Q-49 1623-49 1706M63 0L63 322L246 322L246 1114L78 1114L78 1434L776 1434L776 1114L608 1114L608 322L791 322L791 0L63 0M494 1706Q494 1792 551.50 1843Q609 1894 696 1894Q784 1894 841.50 1843Q899 1792 899 1706Q899 1623 841.50 1571.50Q784 1520 696 1520Q610 1520 552 1571.50Q494 1623 494 1706Z"  horiz-adv-x="847" vert-adv-y="2048"  />

      
      <glyph glyph-name="unif0" unicode="&#xf0;" d="M10 553L10 874L182 874L182 1434L723 1434Q859 1433 974.50 1393Q1090 1353 1171.50 1284Q1253 1215 1311 1123.50Q1369 1032 1396 929Q1423 826 1423 717Q1423 608 1396 505Q1369 402 1311 310.50Q1253 219 1171.50 150Q1090 81 974.50 41Q859 1 723 0L182 0L182 553L10 553M549 334L723 334Q806 334 872.50 367Q939 400 980.50 454Q1022 508 1044 576.50Q1066 645 1066 717Q1066 789 1044 857.50Q1022 926 980.50 980Q939 1034 872.50 1067Q806 1100 723 1100L549 1100L549 874L737 874L737 553L549 553L549 334Z"  horiz-adv-x="1519" vert-adv-y="2048"  />

      
      <glyph glyph-name="unif1" unicode="&#xf1;" d="M182 0L182 1440L315 1440L1040 731L1040 1434L1415 1434L1415-2L1284-2L561 705L561 0L182 0M393 1624Q448 1789 556.50 1847.50Q665 1906 821 1845Q824 1844 840.50 1837Q857 1830 863 1828Q869 1826 885.50 1820.50Q902 1815 909.50 1813.50Q917 1812 932 1810Q947 1808 955 1810Q963 1812 975 1815Q987 1818 994 1825.50Q1001 1833 1008 1844Q1015 1855 1020 1870Q1038 1862 1103.50 1834.50Q1169 1807 1204 1790Q1171 1639 1058 1570Q945 1501 807 1556Q803 1558 772.50 1571.50Q742 1585 727 1590.50Q712 1596 682.50 1602.50Q653 1609 635 1606Q617 1603 598 1589.50Q579 1576 569 1550Q472 1588 393 1624Z"  horiz-adv-x="1597" vert-adv-y="2048"  />

      
      <glyph glyph-name="unif2" unicode="&#xf2;" d="M94 715Q94 894 157 1039Q220 1184 323.50 1273Q427 1362 559.50 1410.50Q692 1459 829.50 1459Q967 1459 1099.50 1410.50Q1232 1362 1335.50 1273Q1439 1184 1502 1039Q1565 894 1565 715Q1565 535 1502 390Q1439 245 1335.50 155.50Q1232 66 1099.50 17.50Q967-31 829.50-31Q692-31 559.50 17.50Q427 66 323.50 155.50Q220 245 157 390Q94 535 94 715M471 715Q471 621 502 545Q533 469 583.50 422Q634 375 698.50 350Q763 325 830.50 325Q898 325 962.50 350Q1027 375 1077.50 422Q1128 469 1159 545Q1190 621 1190 715Q1190 808 1159 883.50Q1128 959 1077.50 1005.50Q1027 1052 962.50 1077Q898 1102 830.50 1102Q763 1102 698.50 1077Q634 1052 583.50 1005.50Q533 959 502 883.50Q471 808 471 715M498 1794L498 1825L809 1929L965 1587L965 1554L709 1554L498 1794Z"  horiz-adv-x="1658" vert-adv-y="2048"  />

      
      <glyph glyph-name="unif3" unicode="&#xf3;" d="M94 715Q94 894 157 1039Q220 1184 323.50 1273Q427 1362 559.50 1410.50Q692 1459 829.50 1459Q967 1459 1099.50 1410.50Q1232 1362 1335.50 1273Q1439 1184 1502 1039Q1565 894 1565 715Q1565 535 1502 390Q1439 245 1335.50 155.50Q1232 66 1099.50 17.50Q967-31 829.50-31Q692-31 559.50 17.50Q427 66 323.50 155.50Q220 245 157 390Q94 535 94 715M471 715Q471 621 502 545Q533 469 583.50 422Q634 375 698.50 350Q763 325 830.50 325Q898 325 962.50 350Q1027 375 1077.50 422Q1128 469 1159 545Q1190 621 1190 715Q1190 808 1159 883.50Q1128 959 1077.50 1005.50Q1027 1052 962.50 1077Q898 1102 830.50 1102Q763 1102 698.50 1077Q634 1052 583.50 1005.50Q533 959 502 883.50Q471 808 471 715M674 1550L674 1583L829 1925L1141 1821L1141 1790L930 1550L674 1550Z"  horiz-adv-x="1658" vert-adv-y="2048"  />

      
      <glyph glyph-name="unif4" unicode="&#xf4;" d="M94 715Q94 894 157 1039Q220 1184 323.50 1273Q427 1362 559.50 1410.50Q692 1459 829.50 1459Q967 1459 1099.50 1410.50Q1232 1362 1335.50 1273Q1439 1184 1502 1039Q1565 894 1565 715Q1565 535 1502 390Q1439 245 1335.50 155.50Q1232 66 1099.50 17.50Q967-31 829.50-31Q692-31 559.50 17.50Q427 66 323.50 155.50Q220 245 157 390Q94 535 94 715M424 1550L424 1583L641 1876L1014 1876L1233 1583L1233 1550L961 1550L827 1706L702 1550L424 1550M471 715Q471 621 502 545Q533 469 583.50 422Q634 375 698.50 350Q763 325 830.50 325Q898 325 962.50 350Q1027 375 1077.50 422Q1128 469 1159 545Q1190 621 1190 715Q1190 808 1159 883.50Q1128 959 1077.50 1005.50Q1027 1052 962.50 1077Q898 1102 830.50 1102Q763 1102 698.50 1077Q634 1052 583.50 1005.50Q533 959 502 883.50Q471 808 471 715Z"  horiz-adv-x="1658" vert-adv-y="2048"  />

      
      <glyph glyph-name="unif5" unicode="&#xf5;" d="M94 715Q94 894 157 1039Q220 1184 323.50 1273Q427 1362 559.50 1410.50Q692 1459 829.50 1459Q967 1459 1099.50 1410.50Q1232 1362 1335.50 1273Q1439 1184 1502 1039Q1565 894 1565 715Q1565 535 1502 390Q1439 245 1335.50 155.50Q1232 66 1099.50 17.50Q967-31 829.50-31Q692-31 559.50 17.50Q427 66 323.50 155.50Q220 245 157 390Q94 535 94 715M424 1632Q479 1797 587.50 1855.50Q696 1914 852 1853Q855 1852 871.50 1845Q888 1838 894 1836Q900 1834 916.50 1828.50Q933 1823 940.50 1821.50Q948 1820 963 1818Q978 1816 986 1818Q994 1820 1006 1823Q1018 1826 1025 1833.50Q1032 1841 1039 1852Q1046 1863 1051 1878Q1069 1870 1134.50 1842.50Q1200 1815 1235 1798Q1202 1647 1089 1578.50Q976 1510 838 1565Q834 1567 803.50 1580.50Q773 1594 758 1599.50Q743 1605 713.50 1611.50Q684 1618 666 1615Q648 1612 629 1598.50Q610 1585 600 1559Q489 1602 424 1632M471 715Q471 621 502 545Q533 469 583.50 422Q634 375 698.50 350Q763 325 830.50 325Q898 325 962.50 350Q1027 375 1077.50 422Q1128 469 1159 545Q1190 621 1190 715Q1190 808 1159 883.50Q1128 959 1077.50 1005.50Q1027 1052 962.50 1077Q898 1102 830.50 1102Q763 1102 698.50 1077Q634 1052 583.50 1005.50Q533 959 502 883.50Q471 808 471 715Z"  horiz-adv-x="1658" vert-adv-y="2048"  />

      
      <glyph glyph-name="unif6" unicode="&#xf6;" d="M94 715Q94 894 157 1039Q220 1184 323.50 1273Q427 1362 559.50 1410.50Q692 1459 829.50 1459Q967 1459 1099.50 1410.50Q1232 1362 1335.50 1273Q1439 1184 1502 1039Q1565 894 1565 715Q1565 535 1502 390Q1439 245 1335.50 155.50Q1232 66 1099.50 17.50Q967-31 829.50-31Q692-31 559.50 17.50Q427 66 323.50 155.50Q220 245 157 390Q94 535 94 715M354 1718Q354 1804 412 1855.50Q470 1907 557 1907Q644 1907 703 1855.50Q762 1804 762 1718Q762 1635 703 1583.50Q644 1532 557 1532Q470 1532 412 1583.50Q354 1635 354 1718M471 715Q471 621 502 545Q533 469 583.50 422Q634 375 698.50 350Q763 325 830.50 325Q898 325 962.50 350Q1027 375 1077.50 422Q1128 469 1159 545Q1190 621 1190 715Q1190 808 1159 883.50Q1128 959 1077.50 1005.50Q1027 1052 962.50 1077Q898 1102 830.50 1102Q763 1102 698.50 1077Q634 1052 583.50 1005.50Q533 959 502 883.50Q471 808 471 715M897 1718Q897 1804 955 1855.50Q1013 1907 1100 1907Q1188 1907 1245.50 1855.50Q1303 1804 1303 1718Q1303 1635 1245.50 1583.50Q1188 1532 1100 1532Q1013 1532 955 1583.50Q897 1635 897 1718Z"  horiz-adv-x="1658" vert-adv-y="2048"  />

      
      <glyph glyph-name="unif8" unicode="&#xf8;" d="M94 721Q94 869 137 994.50Q180 1120 253.50 1206.50Q327 1293 425 1354Q523 1415 632 1441.50Q741 1468 855.50 1465Q970 1462 1077 1427L1161 1565L1509 1565L1509 1526L1350 1264Q1563 1058 1563 721Q1563 576 1521.50 452.50Q1480 329 1408.50 242.50Q1337 156 1242 94.50Q1147 33 1040.50 5.50Q934-22 821.50-21.50Q709-21 604 10L518-131L168-131L168-90L324 164Q216 261 155 401.50Q94 542 94 721M473 721Q473 628 503.50 552.50Q534 477 584.50 430.50Q635 384 699 359Q763 334 830.50 334Q898 334 962 359Q1026 384 1076.50 430.50Q1127 477 1157.50 552.50Q1188 628 1188 721Q1188 815 1157.50 890.50Q1127 966 1076.50 1012.50Q1026 1059 962 1084.50Q898 1110 830.50 1110Q763 1110 699 1084.50Q635 1059 584.50 1012.50Q534 966 503.50 890.50Q473 815 473 721Z"  horiz-adv-x="1656" vert-adv-y="2048"  />

      
      <glyph glyph-name="unif9" unicode="&#xf9;" d="M168 477L168 1434L518 1434L518 483Q518 401 584 355Q650 309 737 309Q824 309 889 355Q954 401 954 483L954 1434L1309 1434L1309 477Q1309 363 1261.50 267.50Q1214 172 1133.50 110Q1053 48 950.50 14Q848-20 737-20Q626-20 524 14Q422 48 342.50 110Q263 172 215.50 267.50Q168 363 168 477M418 1774L418 1804L729 1909L885 1567L885 1534L629 1534L418 1774Z"  horiz-adv-x="1478" vert-adv-y="2048"  />

      
      <glyph glyph-name="unifa" unicode="&#xfa;" d="M168 477L168 1434L518 1434L518 483Q518 401 584 355Q650 309 737 309Q824 309 889 355Q954 401 954 483L954 1434L1309 1434L1309 477Q1309 363 1261.50 267.50Q1214 172 1133.50 110Q1053 48 950.50 14Q848-20 737-20Q626-20 524 14Q422 48 342.50 110Q263 172 215.50 267.50Q168 363 168 477M594 1532L594 1565L750 1907L1061 1802L1061 1772L850 1532L594 1532Z"  horiz-adv-x="1478" vert-adv-y="2048"  />

      
      <glyph glyph-name="unifb" unicode="&#xfb;" d="M168 477L168 1434L518 1434L518 483Q518 401 584 355Q650 309 737 309Q824 309 889 355Q954 401 954 483L954 1434L1309 1434L1309 477Q1309 363 1261.50 267.50Q1214 172 1133.50 110Q1053 48 950.50 14Q848-20 737-20Q626-20 524 14Q422 48 342.50 110Q263 172 215.50 267.50Q168 363 168 477M334 1528L334 1561L551 1853L924 1853L1143 1561L1143 1528L870 1528L737 1683L612 1528L334 1528Z"  horiz-adv-x="1478" vert-adv-y="2048"  />

      
      <glyph glyph-name="unifc" unicode="&#xfc;" d="M168 477L168 1434L518 1434L518 483Q518 401 584 355Q650 309 737 309Q824 309 889 355Q954 401 954 483L954 1434L1309 1434L1309 477Q1309 363 1261.50 267.50Q1214 172 1133.50 110Q1053 48 950.50 14Q848-20 737-20Q626-20 524 14Q422 48 342.50 110Q263 172 215.50 267.50Q168 363 168 477M264 1712Q264 1798 322 1849.50Q380 1901 467 1901Q554 1901 613 1849.50Q672 1798 672 1712Q672 1629 613 1577.50Q554 1526 467 1526Q380 1526 322 1577.50Q264 1629 264 1712M807 1712Q807 1798 865 1849.50Q923 1901 1010 1901Q1098 1901 1155 1849.50Q1212 1798 1212 1712Q1212 1628 1155 1577Q1098 1526 1010 1526Q923 1526 865 1577.50Q807 1629 807 1712Z"  horiz-adv-x="1478" vert-adv-y="2048"  />

      
      <glyph glyph-name="unifd" unicode="&#xfd;" d="M18 1378L18 1434L414 1434L674 956L688 956L948 1434L1346 1434L1346 1378L862 602L862 0L500 0L500 602L18 1378M508 1528L508 1561L664 1903L975 1798L975 1767L764 1528L508 1528Z"  horiz-adv-x="1361" vert-adv-y="2048"  />

      
      <glyph glyph-name="unife" unicode="&#xfe;" d="M182 0L182 1434L549 1434L549 1251L813 1251Q924 1251 1016.50 1214Q1109 1177 1169 1115.50Q1229 1054 1270.50 974Q1312 894 1321 805.50Q1330 717 1321 628.50Q1312 540 1270.50 460Q1229 380 1169 318.50Q1109 257 1016.50 220.50Q924 184 813 184L549 184L549 0L182 0M549 514L811 514Q852 514 885.50 536.50Q919 559 936.50 595Q954 631 962.50 674.50Q971 718 963.50 762Q956 806 939 842Q922 878 888.50 901Q855 924 811 924Q773 925 728.50 925Q684 925 630.50 924.50Q577 924 549 924L549 514Z"  horiz-adv-x="1421" vert-adv-y="2048"  />

      
      <glyph glyph-name="uniff" unicode="&#xff;" d="M18 1378L18 1434L414 1434L674 956L688 956L948 1434L1346 1434L1346 1378L862 602L862 0L500 0L500 602L18 1378M207 1716Q207 1802 265 1853.50Q323 1905 410 1905Q497 1905 555.50 1853.50Q614 1802 614 1716Q614 1633 555.50 1581.50Q497 1530 410 1530Q323 1530 265 1581.50Q207 1633 207 1716M750 1716Q750 1802 807.50 1853.50Q865 1905 952 1905Q1040 1905 1097.50 1853.50Q1155 1802 1155 1716Q1155 1633 1097.50 1581.50Q1040 1530 952 1530Q866 1530 808 1581.50Q750 1633 750 1716Z"  horiz-adv-x="1361" vert-adv-y="2048"  />

      
      <glyph glyph-name="uni0152" unicode="&#x0152;" d="M94 717Q94 838 122 944.50Q150 1051 200 1131Q250 1211 318.50 1274.50Q387 1338 469 1377.50Q551 1417 642 1437.50Q733 1458 829 1457Q925 1456 1020 1434L1810 1434L1810 1108L1300 1108L1300 901L1767 901L1767 575L1300 575L1300 326L1829 326L1829 0L1012 0Q915-22 818-23Q721-24 631-3.50Q541 17 460 56.50Q379 96 312 159.50Q245 223 196.50 303.50Q148 384 121 489.50Q94 595 94 717M471 717Q471 640 493.50 574.50Q516 509 554 463.50Q592 418 642 386Q692 354 747 340Q802 326 859.50 327.50Q917 329 969 346L969 1083Q917 1100 859.50 1101.50Q802 1103 747 1089.50Q692 1076 642 1044Q592 1012 554 967.50Q516 923 493.50 858Q471 793 471 717Z"  horiz-adv-x="1961" vert-adv-y="2048"  />

      
      <glyph glyph-name="uni0153" unicode="&#x0153;" d="M94 717Q94 838 122 944.50Q150 1051 200 1131Q250 1211 318.50 1274.50Q387 1338 469 1377.50Q551 1417 642 1437.50Q733 1458 829 1457Q925 1456 1020 1434L1810 1434L1810 1108L1300 1108L1300 901L1767 901L1767 575L1300 575L1300 326L1829 326L1829 0L1012 0Q915-22 818-23Q721-24 631-3.50Q541 17 460 56.50Q379 96 312 159.50Q245 223 196.50 303.50Q148 384 121 489.50Q94 595 94 717M471 717Q471 640 493.50 574.50Q516 509 554 463.50Q592 418 642 386Q692 354 747 340Q802 326 859.50 327.50Q917 329 969 346L969 1083Q917 1100 859.50 1101.50Q802 1103 747 1089.50Q692 1076 642 1044Q592 1012 554 967.50Q516 923 493.50 858Q471 793 471 717Z"  horiz-adv-x="1961" vert-adv-y="2048"  />

      
      <glyph glyph-name="uni0178" unicode="&#x0178;" d="M18 1378L18 1434L414 1434L674 956L688 956L948 1434L1346 1434L1346 1378L862 602L862 0L500 0L500 602L18 1378M207 1716Q207 1802 265 1853.50Q323 1905 410 1905Q497 1905 555.50 1853.50Q614 1802 614 1716Q614 1633 555.50 1581.50Q497 1530 410 1530Q323 1530 265 1581.50Q207 1633 207 1716M750 1716Q750 1802 807.50 1853.50Q865 1905 952 1905Q1040 1905 1097.50 1853.50Q1155 1802 1155 1716Q1155 1633 1097.50 1581.50Q1040 1530 952 1530Q866 1530 808 1581.50Q750 1633 750 1716Z"  horiz-adv-x="1361" vert-adv-y="2048"  />

      
      <glyph glyph-name="uni02C6" unicode="&#x02C6;" d="M84 1198L84 1231L301 1524L674 1524L893 1231L893 1198L621 1198L487 1354L362 1198L84 1198Z"  horiz-adv-x="985" vert-adv-y="2048"  />

      
      <glyph glyph-name="uni02DC" unicode="&#x02DC;" d="M78 1237Q133 1402 241.50 1460.50Q350 1519 506 1458Q509 1457 525.50 1450Q542 1443 548 1441Q554 1439 570.50 1433.50Q587 1428 594.50 1426.50Q602 1425 617 1423Q632 1421 640 1423Q648 1425 660 1428Q672 1431 679 1438.50Q686 1446 693 1457Q700 1468 705 1483Q723 1475 788.50 1447.50Q854 1420 889 1403Q856 1252 743 1183Q630 1114 492 1169Q488 1171 457.50 1184.50Q427 1198 412 1203.50Q397 1209 367.50 1215.50Q338 1222 320 1219Q302 1216 283 1202.50Q264 1189 254 1163Q157 1201 78 1237Z"  horiz-adv-x="980" vert-adv-y="2048"  />

      
      <glyph glyph-name="uni2026" unicode="&#x2026;" d="M68 174Q68 259 126 312Q184 365 272 365Q357 365 415 312Q473 259 473 174Q473 91 415 39.50Q357-12 272-12Q184-12 126 39.50Q68 91 68 174M594 174Q594 259 652.50 312Q711 365 799 365Q884 365 941.50 312Q999 259 999 174Q999 91 941.50 39.50Q884-12 799-12Q711-12 652.50 39.50Q594 91 594 174M1122 174Q1122 259 1180.50 312Q1239 365 1327 365Q1412 365 1470 312Q1528 259 1528 174Q1528 91 1470 39.50Q1412-12 1327-12Q1239-12 1180.50 39.50Q1122 91 1122 174Z"  horiz-adv-x="1636" vert-adv-y="2048"  />

      
      <glyph glyph-name="uni25FC" unicode="&#x25FC;" d="M0 0L0 1434L1434 1434L1434 0L0 0Z"  horiz-adv-x="1433" vert-adv-y="2048"  />

      

  </font>
</defs>
</svg>
